<svg width="26" height="25" viewBox="0 0 26 25" fill="none" xmlns="http://www.w3.org/2000/svg">
<path d="M11.137 21.96C11.145 22.1593 11.0932 22.3564 10.9883 22.526C10.8833 22.6957 10.7301 22.83 10.5482 22.9119C10.3663 22.9938 10.1641 23.0194 9.96759 22.9854C9.77104 22.9515 9.58915 22.8595 9.44526 22.7214C9.30138 22.5833 9.20209 22.4053 9.16015 22.2103C9.11821 22.0153 9.13554 21.8122 9.20991 21.6271C9.28428 21.4421 9.41229 21.2835 9.57749 21.1717C9.7427 21.06 9.93754 21.0002 10.137 21C10.3968 20.9949 10.6481 21.0931 10.8356 21.2731C11.0231 21.4531 11.1315 21.7002 11.137 21.96V21.96Z" stroke="#333333" stroke-width="3" stroke-linecap="round" stroke-linejoin="round"/>
<path d="M22.137 21.96C22.145 22.1593 22.0932 22.3564 21.9883 22.526C21.8833 22.6957 21.7301 22.83 21.5482 22.9119C21.3663 22.9938 21.1641 23.0194 20.9676 22.9854C20.771 22.9515 20.5891 22.8595 20.4453 22.7214C20.3014 22.5833 20.2021 22.4053 20.1602 22.2103C20.1182 22.0153 20.1355 21.8122 20.2099 21.6271C20.2843 21.4421 20.4123 21.2835 20.5775 21.1717C20.7427 21.06 20.9375 21.0002 21.137 21C21.3968 20.9949 21.6481 21.0931 21.8356 21.2731C22.0231 21.4531 22.1315 21.7002 22.137 21.96V21.96Z" stroke="#333333" stroke-width="3" stroke-linecap="round" stroke-linejoin="round"/>
<path d="M2.13699 2H6.13699L8.81699 15.39C8.90844 15.8504 9.1589 16.264 9.52454 16.5583C9.89018 16.8526 10.3477 17.009 10.817 17H20.537C21.0063 17.009 21.4638 16.8526 21.8294 16.5583C22.1951 16.264 22.4455 15.8504 22.537 15.39L24.137 7H7.13699" stroke="#333333" stroke-width="3" stroke-linecap="round" stroke-linejoin="round"/>
</svg>
