<svg width="24" height="24" viewBox="0 0 24 24" fill="none" xmlns="http://www.w3.org/2000/svg">
<path d="M23.962 9.69101C23.9169 9.55217 23.8334 9.42892 23.7212 9.33549C23.609 9.24206 23.4727 9.18227 23.328 9.16301L15.928 8.17601L12.7 1.44001C12.6374 1.3073 12.5383 1.19512 12.4144 1.11656C12.2905 1.03799 12.1467 0.996277 12 0.996277C11.8533 0.996277 11.7095 1.03799 11.5856 1.11656C11.4617 1.19512 11.3626 1.3073 11.3 1.44001L8.07601 8.17901L0.676007 9.16601C0.531304 9.18533 0.395017 9.24519 0.282879 9.33866C0.17074 9.43213 0.0873232 9.55541 0.0422575 9.69427C-0.00280818 9.83313 -0.00768486 9.9819 0.0281905 10.1234C0.0640658 10.2649 0.13923 10.3934 0.245007 10.494L5.65501 15.644L4.30001 22.987C4.27348 23.1307 4.28815 23.2789 4.34233 23.4146C4.39652 23.5503 4.48799 23.6679 4.60619 23.7537C4.72439 23.8396 4.86447 23.8903 5.01026 23.8999C5.15604 23.9095 5.30157 23.8776 5.43001 23.808L12 20.254L18.57 23.807C18.6984 23.8766 18.844 23.9085 18.9898 23.8989C19.1355 23.8893 19.2756 23.8386 19.3938 23.7527C19.512 23.6669 19.6035 23.5493 19.6577 23.4136C19.7119 23.2779 19.7265 23.1297 19.7 22.986L18.35 15.641L23.76 10.491C23.8657 10.3903 23.9408 10.2617 23.9765 10.1202C24.0122 9.97862 24.0072 9.82983 23.962 9.69101Z" fill="#A0A0A0"/>
</svg>
