<svg width="15" height="16" viewBox="0 0 15 16" fill="none" xmlns="http://www.w3.org/2000/svg">
<path d="M7.16001 0C6.32557 0 5.50987 0.24744 4.81606 0.71103C4.12224 1.17462 3.58149 1.83354 3.26216 2.60446C2.94283 3.37538 2.85929 4.22368 3.02208 5.04209C3.18487 5.86049 3.58669 6.61225 4.17673 7.20228C4.76676 7.79232 5.51852 8.19414 6.33692 8.35693C7.15533 8.51972 8.00363 8.43617 8.77455 8.11685C9.54547 7.79752 10.2044 7.25676 10.668 6.56295C11.1316 5.86914 11.379 5.05344 11.379 4.219C11.3779 3.10038 10.9331 2.02787 10.1421 1.23689C9.35114 0.4459 8.27863 0.00105905 7.16001 0V0Z" fill="#333333"/>
<path d="M14.112 12.459C13.4933 11.5289 12.6541 10.7662 11.6691 10.2391C10.6842 9.71201 9.58413 9.4368 8.46701 9.438H5.85201C4.73488 9.4368 3.63482 9.71201 2.64988 10.2391C1.66493 10.7662 0.825702 11.5289 0.207005 12.459L0.128006 12.577V16H14.191V12.577L14.112 12.459Z" fill="#333333"/>
</svg>
